g GameLock_Umodel_Mesh
v -1.5 0 0.5
v 1.5 0 0.5
v 1.5 0 -0.5
v -1.5 0 -0.5
v -1.5 3 0.5
v -1.5 3 -0.5
v 1.5 3 -0.5
v 1.5 3 0.5
v -1.5 0 0.5
v -1.5 0 -0.5
v -1.5 3 -0.5
v -1.5 3 0.5
v 1.5 0 -0.5
v 1.5 0 0.5
v 1.5 3 0.5
v 1.5 3 -0.5
v -1.5 0 -0.5
v 1.5 0 -0.5
v 1.5 3 -0.5
v -1.5 3 -0.5
v -0.3874999 0.6531253 -0.5
v -0.19375 1.327139 -0.5
v -0.3355848 1.478125 -0.5
v -0.3874999 1.684375 -0.5
v -0.3355848 1.890625 -0.5
v -0.19375 2.04161 -0.5
v -1.693816E-08 2.096875 -0.5
v 0.1937499 2.04161 -0.5
v 0.3355848 1.890625 -0.5
v 0.3874999 1.684375 -0.5
v 0.3355848 1.478125 -0.5
v 0.1937499 1.327139 -0.5
v 0.3874999 0.6531253 -0.5
v 1.5 0 0.5
v -1.5 0 0.5
v -1.5 3 0.5
v 1.5 3 0.5
v -0.19375 1.327139 0.25
v -0.19375 1.327139 -0.5
v -0.3874999 0.6531253 -0.5
v -0.3874999 0.6531253 0.25
v -0.3874999 0.6531253 0.25
v -0.3874999 0.6531253 -0.5
v 0.3874999 0.6531253 -0.5
v 0.3874999 0.6531253 0.25
v 0.3874999 0.6531253 0.25
v 0.3874999 0.6531253 -0.5
v 0.1937499 1.327139 -0.5
v 0.1937499 1.327139 0.25
v 0.1937499 1.327139 0.25
v 0.1937499 1.327139 -0.5
v 0.3355848 1.478125 -0.5
v 0.3355848 1.478125 0.25
v 0.3355848 1.478125 0.25
v 0.3355848 1.478125 -0.5
v 0.3874999 1.684375 -0.5
v 0.3874999 1.684375 0.25
v 0.3874999 1.684375 0.25
v 0.3874999 1.684375 -0.5
v 0.3355848 1.890625 -0.5
v 0.3355848 1.890625 0.25
v 0.3355848 1.890625 0.25
v 0.3355848 1.890625 -0.5
v 0.1937499 2.04161 -0.5
v 0.1937499 2.04161 0.25
v 0.1937499 2.04161 0.25
v 0.1937499 2.04161 -0.5
v -1.693816E-08 2.096875 -0.5
v -1.693816E-08 2.096875 0.25
v -1.693816E-08 2.096875 0.25
v -1.693816E-08 2.096875 -0.5
v -0.19375 2.04161 -0.5
v -0.19375 2.04161 0.25
v -0.19375 2.04161 0.25
v -0.19375 2.04161 -0.5
v -0.3355848 1.890625 -0.5
v -0.3355848 1.890625 0.25
v -0.3355848 1.890625 0.25
v -0.3355848 1.890625 -0.5
v -0.3874999 1.684375 -0.5
v -0.3874999 1.684375 0.25
v -0.3874999 1.684375 0.25
v -0.3874999 1.684375 -0.5
v -0.3355848 1.478125 -0.5
v -0.3355848 1.478125 0.25
v -0.3355848 1.478125 0.25
v -0.3355848 1.478125 -0.5
v -0.19375 1.327139 -0.5
v -0.19375 1.327139 0.25
v -0.19375 1.327139 0.25
v -0.3874999 0.6531253 0.25
v 0.3874999 0.6531253 0.25
v 0.1937499 1.327139 0.25
v 0.3355848 1.478125 0.25
v 0.3874999 1.684375 0.25
v 0.3355848 1.890625 0.25
v 0.1937499 2.04161 0.25
v -1.693816E-08 2.096875 0.25
v -0.19375 2.04161 0.25
v -0.3355848 1.890625 0.25
v -0.3874999 1.684375 0.25
v -0.3355848 1.478125 0.25
vt 0.5025635 0.6684189
vt 0.9974365 0.6684189
vt 0.9974365 0.5034561
vt 0.5025635 0.5034561
vt 0.5025635 0.8315811
vt 0.5025635 0.9965439
vt 0.9974365 0.9965439
vt 0.9974365 0.8315811
vt 0.9996344 0.5025673
vt 0.8753656 0.5025673
vt 0.8753656 0.9974327
vt 0.9996344 0.9974327
vt 0.6684113 0.5025673
vt 0.5034637 0.5025673
vt 0.5034637 0.9974327
vt 0.6684113 0.9974327
vt 0.4987453 0.5010875
vt 0 0.5010875
vt 0 1
vt 0.4987453 1
vt 0.3137939 0.609705
vt 0.2815833 0.7217964
vt 0.3051631 0.7469059
vt 0.3137939 0.7812061
vt 0.3051631 0.8155063
vt 0.2815833 0.8406158
vt 0.2493727 0.8498065
vt 0.2171621 0.8406158
vt 0.1935822 0.8155063
vt 0.1849514 0.7812061
vt 0.1935822 0.7469059
vt 0.2171621 0.7217964
vt 0.1849514 0.609705
vt 0.9974365 0.5025673
vt 0.5025635 0.5025673
vt 0.5025635 0.9974327
vt 0.9974365 0.9974327
vt 0.9429313 0.3717799
vt 0.9949629 0.3717799
vt 0.9949629 0.3233217
vt 0.9429313 0.3233217
vt 0.9949629 0.3233217
vt 0.9429313 0.3233217
vt 0.9429313 0.3717799
vt 0.9949629 0.3717799
vt 0.9949629 0.3233217
vt 0.9429313 0.3233217
vt 0.9429313 0.3717799
vt 0.9949629 0.3717799
vt 0.9949629 0.3233217
vt 0.9429313 0.3233217
vt 0.9429313 0.3717799
vt 0.9949629 0.3717799
vt 0.9949629 0.3233217
vt 0.9429313 0.3233217
vt 0.9429313 0.3717799
vt 0.9949629 0.3717799
vt 0.9949629 0.3233217
vt 0.9429313 0.3233217
vt 0.9429313 0.3717799
vt 0.9949629 0.3717799
vt 0.9949629 0.3233217
vt 0.9429313 0.3233217
vt 0.9429313 0.3717799
vt 0.9949629 0.3717799
vt 0.9429313 0.3717799
vt 0.9949629 0.3717799
vt 0.9949629 0.3233217
vt 0.9429313 0.3233217
vt 0.9429313 0.3717799
vt 0.9949629 0.3717799
vt 0.9949629 0.3233217
vt 0.9429313 0.3233217
vt 0.9429313 0.3717799
vt 0.9949629 0.3717799
vt 0.9949629 0.3233217
vt 0.9429313 0.3233217
vt 0.9429313 0.3717799
vt 0.9949629 0.3717799
vt 0.9949629 0.3233217
vt 0.9429313 0.3233217
vt 0.9429313 0.3717799
vt 0.9949629 0.3717799
vt 0.9949629 0.3233217
vt 0.9429313 0.3233217
vt 0.9429313 0.3717799
vt 0.9949629 0.3717799
vt 0.9949629 0.3233217
vt 0.9429313 0.3233217
vt 0.9829912 0.05844704
vt 0.9975911 0.001014799
vt 0.9391914 0.001014799
vt 0.9537913 0.05844704
vt 0.9431034 0.07131239
vt 0.9391914 0.08888678
vt 0.9431034 0.1064612
vt 0.9537913 0.1193265
vt 0.9683913 0.1240356
vt 0.9829912 0.1193265
vt 0.9936791 0.1064612
vt 0.9975911 0.08888678
vt 0.9936791 0.07131239
vn 0 -1 0
vn 0 -1 0
vn 0 -1 0
vn 0 -1 0
vn 0 1 0
vn 0 1 0
vn 0 1 0
vn 0 1 0
vn -1 0 0
vn -1 0 0
vn -1 0 0
vn -1 0 0
vn 1 0 0
vn 1 0 0
vn 1 0 0
vn 1 0 0
vn 0 0 -1
vn 0 0 -1
vn 0 0 -1
vn 0 0 -1
vn 0 0 -1
vn 0 0 -1
vn 0 0 -1
vn 0 0 -1
vn 0 0 -1
vn 0 0 -1
vn 0 0 -1
vn 0 0 -1
vn 0 0 -1
vn 0 0 -1
vn 0 0 -1
vn 0 0 -1
vn 0 0 -1
vn 0 0 1
vn 0 0 1
vn 0 0 1
vn 0 0 1
vn 0.9610804 -0.276269 0
vn 0.9610804 -0.276269 0
vn 0.9610804 -0.276269 0
vn 0.9610804 -0.276269 0
vn 0 1 0
vn 0 1 0
vn 0 1 0
vn 0 1 0
vn -0.9610804 -0.2762691 0
vn -0.9610804 -0.2762691 0
vn -0.9610804 -0.2762691 0
vn -0.9610804 -0.2762691 0
vn -0.728848 0.6846755 0
vn -0.728848 0.6846755 0
vn -0.728848 0.6846755 0
vn -0.728848 0.6846755 0
vn -0.9697511 0.244096 0
vn -0.9697511 0.244096 0
vn -0.9697511 0.244096 0
vn -0.9697511 0.244096 0
vn -0.9697511 -0.2440959 0
vn -0.9697511 -0.2440959 0
vn -0.9697511 -0.2440959 0
vn -0.9697511 -0.2440959 0
vn -0.728848 -0.6846755 0
vn -0.728848 -0.6846755 0
vn -0.728848 -0.6846755 0
vn -0.728848 -0.6846755 0
vn -0.2742959 -0.9616454 0
vn -0.2742959 -0.9616454 0
vn -0.2742959 -0.9616454 0
vn -0.2742959 -0.9616454 0
vn 0.2742959 -0.9616454 0
vn 0.2742959 -0.9616454 0
vn 0.2742959 -0.9616454 0
vn 0.2742959 -0.9616454 0
vn 0.7288482 -0.6846753 0
vn 0.7288482 -0.6846753 0
vn 0.7288482 -0.6846753 0
vn 0.7288482 -0.6846753 0
vn 0.9697511 -0.2440959 0
vn 0.9697511 -0.2440959 0
vn 0.9697511 -0.2440959 0
vn 0.9697511 -0.2440959 0
vn 0.9697511 0.244096 0
vn 0.9697511 0.244096 0
vn 0.9697511 0.244096 0
vn 0.9697511 0.244096 0
vn 0.7288482 0.6846753 0
vn 0.7288482 0.6846753 0
vn 0.7288482 0.6846753 0
vn 0.7288482 0.6846753 0
vn 0 0 -1
vn 0 0 -1
vn 0 0 -1
vn 0 0 -1
vn 0 0 -1
vn 0 0 -1
vn 0 0 -1
vn 0 0 -1
vn 0 0 -1
vn 0 0 -1
vn 0 0 -1
vn 0 0 -1
vn 0 0 -1
g GameLock_Umodel_Mesh_0
f 3/3/3 2/2/2 1/1/1
f 4/4/4 3/3/3 1/1/1
f 7/7/7 6/6/6 5/5/5
f 8/8/8 7/7/7 5/5/5
f 11/11/11 10/10/10 9/9/9
f 12/12/12 11/11/11 9/9/9
f 15/15/15 14/14/14 13/13/13
f 16/16/16 15/15/15 13/13/13
f 18/18/18 17/17/17 21/21/21
f 21/21/21 17/17/17 22/22/22
f 22/22/22 17/17/17 23/23/23
f 23/23/23 17/17/17 24/24/24
f 24/24/24 17/17/17 25/25/25
f 28/28/28 27/27/27 20/20/20
f 27/27/27 26/26/26 20/20/20
f 26/26/26 25/25/25 20/20/20
f 25/25/25 17/17/17 20/20/20
f 18/18/18 21/21/21 33/33/33
f 18/18/18 33/33/33 32/32/32
f 18/18/18 32/32/32 31/31/31
f 18/18/18 31/31/31 30/30/30
f 18/18/18 30/30/30 29/29/29
f 28/28/28 20/20/20 19/19/19
f 29/29/29 28/28/28 19/19/19
f 18/18/18 29/29/29 19/19/19
f 36/36/36 35/35/35 34/34/34
f 37/37/37 36/36/36 34/34/34
f 40/40/40 39/39/39 38/38/38
f 41/41/41 40/40/40 38/38/38
f 44/44/44 43/43/43 42/42/42
f 45/45/45 44/44/44 42/42/42
f 48/48/48 47/47/47 46/46/46
f 49/49/49 48/48/48 46/46/46
f 52/52/52 51/51/51 50/50/50
f 53/53/53 52/52/52 50/50/50
f 56/56/56 55/55/55 54/54/54
f 57/57/57 56/56/56 54/54/54
f 60/60/60 59/59/59 58/58/58
f 61/61/61 60/60/60 58/58/58
f 64/64/64 63/63/63 62/62/62
f 65/65/65 64/64/64 62/62/62
f 68/68/68 67/67/67 66/66/66
f 69/69/69 68/68/68 66/66/66
f 72/72/72 71/71/71 70/70/70
f 73/73/73 72/72/72 70/70/70
f 76/76/76 75/75/75 74/74/74
f 77/77/77 76/76/76 74/74/74
f 80/80/80 79/79/79 78/78/78
f 81/81/81 80/80/80 78/78/78
f 84/84/84 83/83/83 82/82/82
f 85/85/85 84/84/84 82/82/82
f 88/88/88 87/87/87 86/86/86
f 89/89/89 88/88/88 86/86/86
f 92/92/92 91/91/91 90/90/90
f 90/90/90 102/102/102 93/93/93
f 92/92/92 90/90/90 93/93/93
f 93/93/93 102/102/102 101/101/101
f 93/93/93 101/101/101 94/94/94
f 94/94/94 101/101/101 100/100/100
f 94/94/94 100/100/100 95/95/95
f 95/95/95 100/100/100 99/99/99
f 95/95/95 99/99/99 96/96/96
f 96/96/96 99/99/99 98/98/98
f 96/96/96 98/98/98 97/97/97
