g ShrinkMachine_Door_UMOD_Mesh
v -2.65165 0 2.65165
v -3.464548 0 1.435063
v -3.464548 8.5 1.435063
v -2.65165 8.5 2.65165
v -2.309699 0 0.9567078
v -2.309699 8.5 0.9567078
v -2.5 8.5 -2.98122E-08
v -2.5 0 -2.98122E-08
v -2.5 0 -2.98122E-08
v -2.5 8.5 -2.98122E-08
v -2.309699 8.5 -0.956709
v -2.309699 0 -0.956709
v -2.309699 0 -0.956709
v -2.309699 8.5 -0.956709
v -1.767766 8.5 -1.767768
v -1.767766 0 -1.767768
v -1.767766 0 -1.767768
v -1.767766 8.5 -1.767768
v -2.043357 8.5 -3.058099
v -2.043357 0 -3.058099
v -3.464548 0 -1.435063
v -2.65165 0 -2.65165
v -2.65165 8.5 -2.65165
v -3.464548 8.5 -1.435063
v -3.75 0 1.639177E-07
v -3.464548 0 -1.435063
v -3.464548 8.5 -1.435063
v -3.75 8.5 1.639177E-07
v -3.464548 0 1.435063
v -3.75 0 1.639177E-07
v -3.75 8.5 1.639177E-07
v -3.464548 8.5 1.435063
v 2.309699 0 -0.9567086
v 2.309699 8.5 -0.9567086
v 2.5 8.5 1.092785E-07
v 2.5 0 1.092785E-07
v 2.5 0 1.092785E-07
v 2.5 8.5 1.092785E-07
v 2.309699 8.5 0.9567088
v 2.309699 0 0.9567088
v 2.309699 0 0.9567088
v 2.309699 8.5 0.9567088
v 1.767767 8.5 1.767767
v 1.767767 0 1.767767
v 1.767767 0 1.767767
v 1.767767 8.5 1.767767
v 0.9567082 8.5 2.309699
v 0.9567082 0 2.309699
v 0.9567082 0 2.309699
v 0.9567082 8.5 2.309699
v -2.185569E-07 8.5 2.5
v -2.185569E-07 0 2.5
v -2.185569E-07 0 2.5
v -2.185569E-07 8.5 2.5
v -0.9567086 8.5 2.309699
v -0.9567086 0 2.309699
v -0.9567086 0 2.309699
v -0.9567086 8.5 2.309699
v -1.767767 8.5 1.767767
v -1.767767 0 1.767767
v -1.767767 0 1.767767
v -1.767767 8.5 1.767767
v -2.309699 8.5 0.9567078
v -2.309699 0 0.9567078
v 1.767767 0 -1.767767
v 1.767767 8.5 -1.767767
v 2.309699 8.5 -0.9567086
v 2.309699 0 -0.9567086
v -2.65165 0 -2.65165
v -2.043357 0 -3.058099
v -2.043357 8.5 -3.058099
v -2.65165 8.5 -2.65165
v 2.043357 0 -3.058099
v 2.043357 8.5 -3.058099
v 1.767767 8.5 -1.767767
v 1.767767 0 -1.767767
v -1.875 0 3.25
v -2.65165 0 2.65165
v -2.65165 8.5 2.65165
v -1.875 8.5 3.25
v 1.875 0 3.25
v 2.65165 0 2.65165
v 3.464548 0 1.435063
v 3.75 0 1.639177E-07
v 3.464548 0 -1.435063
v 2.65165 0 -2.65165
v 2.043357 0 -3.058099
v 1.767767 0 -1.767767
v 2.309699 0 -0.9567086
v 2.5 0 1.092785E-07
v 2.309699 0 0.9567088
v 1.767767 0 1.767767
v 0.9567082 0 2.309699
v -2.185569E-07 0 2.5
v -0.9567086 0 2.309699
v -1.767767 0 1.767767
v -2.309699 0 0.9567078
v -2.5 0 -2.98122E-08
v -2.309699 0 -0.956709
v -1.767766 0 -1.767768
v -2.043357 0 -3.058099
v -2.65165 0 -2.65165
v -3.464548 0 -1.435063
v -3.75 0 1.639177E-07
v -3.464548 0 1.435063
v -2.65165 0 2.65165
v -1.875 0 3.25
v -1.875 0 3.25
v -1.875 8.5 3.25
v 1.875 8.5 3.25
v 1.875 0 3.25
v -1.875 8.5 3.25
v -2.65165 8.5 2.65165
v -3.464548 8.5 1.435063
v -3.75 8.5 1.639177E-07
v -3.464548 8.5 -1.435063
v -2.65165 8.5 -2.65165
v -2.043357 8.5 -3.058099
v -1.767766 8.5 -1.767768
v -2.309699 8.5 -0.956709
v -2.5 8.5 -2.98122E-08
v -2.309699 8.5 0.9567078
v -1.767767 8.5 1.767767
v -0.9567086 8.5 2.309699
v -2.185569E-07 8.5 2.5
v 0.9567082 8.5 2.309699
v 1.767767 8.5 1.767767
v 2.309699 8.5 0.9567088
v 2.5 8.5 1.092785E-07
v 2.309699 8.5 -0.9567086
v 1.767767 8.5 -1.767767
v 2.043357 8.5 -3.058099
v 2.65165 8.5 -2.65165
v 3.464548 8.5 -1.435063
v 3.75 8.5 1.639177E-07
v 3.464548 8.5 1.435063
v 2.65165 8.5 2.65165
v 1.875 8.5 3.25
v 2.043357 0 -3.058099
v 2.65165 0 -2.65165
v 2.65165 8.5 -2.65165
v 2.043357 8.5 -3.058099
v 2.65165 0 -2.65165
v 3.464548 0 -1.435063
v 3.464548 8.5 -1.435063
v 2.65165 8.5 -2.65165
v 3.464548 0 -1.435063
v 3.75 0 1.639177E-07
v 3.75 8.5 1.639177E-07
v 3.464548 8.5 -1.435063
v 3.75 0 1.639177E-07
v 3.464548 0 1.435063
v 3.464548 8.5 1.435063
v 3.75 8.5 1.639177E-07
v 3.464548 0 1.435063
v 2.65165 0 2.65165
v 2.65165 8.5 2.65165
v 3.464548 8.5 1.435063
v 2.65165 0 2.65165
v 1.875 0 3.25
v 1.875 8.5 3.25
v 2.65165 8.5 2.65165
vt 1.351628 -0.1086738
vt 1.176837 -0.1090244
vt 1.174792 0.9994208
vt 1.349583 0.9997714
vt 1.07878 -0.109375
vt 1.07878 1
vt 1.171708 1
vt 1.171708 -0.109375
vt 1.171708 -0.109375
vt 1.171708 1
vt 1.264636 1
vt 1.264636 -0.109375
vt 1.264636 -0.109375
vt 1.264636 1
vt 1.343416 1
vt 1.343416 -0.109375
vt 1.343416 -0.109375
vt 1.343416 1
vt 1.46875 1
vt 1.46875 -0.109375
vt 1.282123 -0.1088566
vt 1.095497 -0.1092073
vt 1.093313 0.9992988
vt 1.27994 0.9996493
vt 1.46875 -0.108506
vt 1.282123 -0.1088566
vt 1.27994 0.9996493
vt 1.466566 1
vt 1.176837 -0.1090244
vt 1.002045 -0.109375
vt 1 0.9990701
vt 1.174792 0.9994208
vt 1.204114 -0.109375
vt 1.204114 1
vt 1.297042 1
vt 1.297042 -0.109375
vt 1.297042 -0.109375
vt 1.297042 1
vt 1.38997 1
vt 1.38997 -0.109375
vt 1.38997 -0.109375
vt 1.38997 1
vt 1.46875 1
vt 1.46875 -0.109375
vt 1 -0.109375
vt 1 1
vt 1.107532 1
vt 1.107532 -0.109375
vt 1.107532 -0.109375
vt 1.107532 1
vt 1.234375 1
vt 1.234375 -0.109375
vt 1.234375 -0.109375
vt 1.234375 1
vt 1.361218 1
vt 1.361218 -0.109375
vt 1.361218 -0.109375
vt 1.361218 1
vt 1.46875 1
vt 1.46875 -0.109375
vt 1 -0.109375
vt 1 1
vt 1.07878 1
vt 1.07878 -0.109375
vt 1.125334 -0.109375
vt 1.125334 1
vt 1.204114 1
vt 1.204114 -0.109375
vt 1.095497 -0.1092073
vt 1.002184 -0.109375
vt 1 0.999131
vt 1.093313 0.9992988
vt 1 -0.109375
vt 1 1
vt 1.125334 1
vt 1.125334 -0.109375
vt 1.46875 -0.108506
vt 1.351628 -0.1086738
vt 1.349583 0.9997714
vt 1.466705 1
vt 1.875 -3.25
vt 2.65165 -2.65165
vt 3.464548 -1.435063
vt 3.75 -1.788139E-07
vt 3.464548 1.435063
vt 2.65165 2.65165
vt 2.043357 3.058099
vt 1.767767 1.767767
vt 2.309699 0.9567086
vt 2.5 -1.192093E-07
vt 2.309699 -0.9567088
vt 1.767767 -1.767767
vt 0.9567082 -2.309699
vt -2.384186E-07 -2.5
vt -0.9567086 -2.309699
vt -1.767767 -1.767766
vt -2.309699 -0.9567078
vt -2.5 2.980232E-08
vt -2.309699 0.956709
vt -1.767766 1.767768
vt -2.043357 3.058099
vt -2.65165 2.65165
vt -3.464548 1.435063
vt -3.75 -1.788139E-07
vt -3.464548 -1.435063
vt -2.65165 -2.65165
vt -1.875 -3.25
vt 0.9375 -0.109375
vt 0.9354867 0.9999985
vt 0.4667367 0.9999985
vt 0.46875 -0.109375
vt 1.875 3.25
vt 2.65165 2.65165
vt 3.464548 1.435063
vt 3.75 1.788139E-07
vt 3.464548 -1.435063
vt 2.65165 -2.65165
vt 2.043357 -3.058099
vt 1.767766 -1.767767
vt 2.309699 -0.956709
vt 2.5 -5.960464E-08
vt 2.309699 0.9567078
vt 1.767767 1.767767
vt 0.9567086 2.309699
vt 2.086163E-07 2.5
vt -0.9567082 2.309699
vt -1.767767 1.767767
vt -2.309699 0.9567088
vt -2.5 1.192093E-07
vt -2.309699 -0.9567086
vt -1.767767 -1.767767
vt -2.043357 -3.058099
vt -2.65165 -2.65165
vt -3.464548 -1.435063
vt -3.75 1.788139E-07
vt -3.464548 1.435063
vt -2.65165 2.65165
vt -1.875 3.25
vt 1 -0.109375
vt 1.125 -0.109375
vt 1.125 1
vt 1 1
vt 1.125 -0.109375
vt 1.25 -0.109375
vt 1.25 1
vt 1.125 1
vt 1.25 -0.109375
vt 1.46875 -0.109375
vt 1.46875 1
vt 1.25 1
vt 0 -0.109375
vt 0.1875 -0.109375
vt 0.1875 1
vt -0.002013326 1.000001
vt 0.1875 -0.109375
vt 0.390625 -0.109375
vt 0.3898366 1.000004
vt 0.1875 1
vt 0.390625 -0.109375
vt 0.46875 -0.109375
vt 0.4667367 0.9999985
vt 0.3898366 1.000004
vn -0.8314697 0 0.5555702
vn -0.8314697 0 0.5555702
vn -0.8314697 0 0.5555702
vn -0.8314697 0 0.5555702
vn 0.9807854 0 -0.19509
vn 0.9807854 0 -0.19509
vn 0.9807854 0 -0.19509
vn 0.9807854 0 -0.19509
vn 0.9807853 0 0.1950905
vn 0.9807853 0 0.1950905
vn 0.9807853 0 0.1950905
vn 0.9807853 0 0.1950905
vn 0.8314695 0 0.5555704
vn 0.8314695 0 0.5555704
vn 0.8314695 0 0.5555704
vn 0.8314695 0 0.5555704
vn 0.9779434 0 -0.2088701
vn 0.9779434 0 -0.2088701
vn 0.9779434 0 -0.2088701
vn 0.9779434 0 -0.2088701
vn -0.8314697 0 -0.5555702
vn -0.8314697 0 -0.5555702
vn -0.8314697 0 -0.5555702
vn -0.8314697 0 -0.5555702
vn -0.9807853 0 -0.1950904
vn -0.9807853 0 -0.1950904
vn -0.9807853 0 -0.1950904
vn -0.9807853 0 -0.1950904
vn -0.9807853 0 0.1950904
vn -0.9807853 0 0.1950904
vn -0.9807853 0 0.1950904
vn -0.9807853 0 0.1950904
vn -0.9807853 0 0.1950903
vn -0.9807853 0 0.1950903
vn -0.9807853 0 0.1950903
vn -0.9807853 0 0.1950903
vn -0.9807853 0 -0.1950903
vn -0.9807853 0 -0.1950903
vn -0.9807853 0 -0.1950903
vn -0.9807853 0 -0.1950903
vn -0.8314696 0 -0.5555704
vn -0.8314696 0 -0.5555704
vn -0.8314696 0 -0.5555704
vn -0.8314696 0 -0.5555704
vn -0.5555702 0 -0.8314697
vn -0.5555702 0 -0.8314697
vn -0.5555702 0 -0.8314697
vn -0.5555702 0 -0.8314697
vn -0.1950901 0 -0.9807853
vn -0.1950901 0 -0.9807853
vn -0.1950901 0 -0.9807853
vn -0.1950901 0 -0.9807853
vn 0.1950904 0 -0.9807853
vn 0.1950904 0 -0.9807853
vn 0.1950904 0 -0.9807853
vn 0.1950904 0 -0.9807853
vn 0.5555704 0 -0.8314695
vn 0.5555704 0 -0.8314695
vn 0.5555704 0 -0.8314695
vn 0.5555704 0 -0.8314695
vn 0.8314697 0 -0.5555702
vn 0.8314697 0 -0.5555702
vn 0.8314697 0 -0.5555702
vn 0.8314697 0 -0.5555702
vn -0.8314697 0 0.5555702
vn -0.8314697 0 0.5555702
vn -0.8314697 0 0.5555702
vn -0.8314697 0 0.5555702
vn -0.5555702 0 -0.8314697
vn -0.5555702 0 -0.8314697
vn -0.5555702 0 -0.8314697
vn -0.5555702 0 -0.8314697
vn -0.9779435 0 -0.2088696
vn -0.9779435 0 -0.2088696
vn -0.9779435 0 -0.2088696
vn -0.9779435 0 -0.2088696
vn -0.6103041 0 0.7921672
vn -0.6103041 0 0.7921672
vn -0.6103041 0 0.7921672
vn -0.6103041 0 0.7921672
vn 0 -1 0
vn 0 -1 0
vn 0 -1 0
vn 0 -1 0
vn 0 -1 0
vn 0 -1 0
vn 0 -1 0
vn 0 -1 0
vn 0 -1 0
vn 0 -1 0
vn 0 -1 0
vn 0 -1 0
vn 0 -1 0
vn 0 -1 0
vn 0 -1 0
vn 0 -1 0
vn 0 -1 0
vn 0 -1 0
vn 0 -1 0
vn 0 -1 0
vn 0 -1 0
vn 0 -1 0
vn 0 -1 0
vn 0 -1 0
vn 0 -1 0
vn 0 -1 0
vn 0 -1 0
vn 0 0 1
vn 0 0 1
vn 0 0 1
vn 0 0 1
vn 0 1 0
vn 0 1 0
vn 0 1 0
vn 0 1 0
vn 0 1 0
vn 0 1 0
vn 0 1 0
vn 0 1 0
vn 0 1 0
vn 0 1 0
vn 0 1 0
vn 0 1 0
vn 0 1 0
vn 0 1 0
vn 0 1 0
vn 0 1 0
vn 0 1 0
vn 0 1 0
vn 0 1 0
vn 0 1 0
vn 0 1 0
vn 0 1 0
vn 0 1 0
vn 0 1 0
vn 0 1 0
vn 0 1 0
vn 0 1 0
vn 0.5555702 0 -0.8314697
vn 0.5555702 0 -0.8314697
vn 0.5555702 0 -0.8314697
vn 0.5555702 0 -0.8314697
vn 0.8314697 0 -0.5555702
vn 0.8314697 0 -0.5555702
vn 0.8314697 0 -0.5555702
vn 0.8314697 0 -0.5555702
vn 0.9807853 0 -0.1950904
vn 0.9807853 0 -0.1950904
vn 0.9807853 0 -0.1950904
vn 0.9807853 0 -0.1950904
vn 0.9807853 0 0.1950904
vn 0.9807853 0 0.1950904
vn 0.9807853 0 0.1950904
vn 0.9807853 0 0.1950904
vn 0.8314697 0 0.5555702
vn 0.8314697 0 0.5555702
vn 0.8314697 0 0.5555702
vn 0.8314697 0 0.5555702
vn 0.6103041 0 0.7921672
vn 0.6103041 0 0.7921672
vn 0.6103041 0 0.7921672
vn 0.6103041 0 0.7921672
g ShrinkMachine_Door_UMOD_Mesh_0
f 3/3/3 2/2/2 1/1/1
f 4/4/4 3/3/3 1/1/1
f 7/7/7 6/6/6 5/5/5
f 8/8/8 7/7/7 5/5/5
f 11/11/11 10/10/10 9/9/9
f 12/12/12 11/11/11 9/9/9
f 15/15/15 14/14/14 13/13/13
f 16/16/16 15/15/15 13/13/13
f 19/19/19 18/18/18 17/17/17
f 20/20/20 19/19/19 17/17/17
f 23/23/23 22/22/22 21/21/21
f 24/24/24 23/23/23 21/21/21
f 27/27/27 26/26/26 25/25/25
f 28/28/28 27/27/27 25/25/25
f 31/31/31 30/30/30 29/29/29
f 32/32/32 31/31/31 29/29/29
f 35/35/35 34/34/34 33/33/33
f 36/36/36 35/35/35 33/33/33
f 39/39/39 38/38/38 37/37/37
f 40/40/40 39/39/39 37/37/37
f 43/43/43 42/42/42 41/41/41
f 44/44/44 43/43/43 41/41/41
f 47/47/47 46/46/46 45/45/45
f 48/48/48 47/47/47 45/45/45
f 51/51/51 50/50/50 49/49/49
f 52/52/52 51/51/51 49/49/49
f 55/55/55 54/54/54 53/53/53
f 56/56/56 55/55/55 53/53/53
f 59/59/59 58/58/58 57/57/57
f 60/60/60 59/59/59 57/57/57
f 63/63/63 62/62/62 61/61/61
f 64/64/64 63/63/63 61/61/61
f 67/67/67 66/66/66 65/65/65
f 68/68/68 67/67/67 65/65/65
f 71/71/71 70/70/70 69/69/69
f 72/72/72 71/71/71 69/69/69
f 75/75/75 74/74/74 73/73/73
f 76/76/76 75/75/75 73/73/73
f 79/79/79 78/78/78 77/77/77
f 80/80/80 79/79/79 77/77/77
f 100/100/100 99/99/99 101/101/101
f 104/104/104 103/103/103 102/102/102
f 104/104/104 102/102/102 105/105/105
f 105/105/105 102/102/102 101/101/101
f 105/105/105 101/101/101 99/99/99
f 105/105/105 99/99/99 98/98/98
f 105/105/105 98/98/98 97/97/97
f 105/105/105 97/97/97 106/106/106
f 106/106/106 97/97/97 96/96/96
f 106/106/106 96/96/96 107/107/107
f 107/107/107 96/96/96 95/95/95
f 107/107/107 95/95/95 94/94/94
f 107/107/107 94/94/94 93/93/93
f 92/92/92 91/91/91 81/81/81
f 93/93/93 92/92/92 81/81/81
f 107/107/107 93/93/93 81/81/81
f 88/88/88 87/87/87 86/86/86
f 88/88/88 86/86/86 89/89/89
f 89/89/89 86/86/86 90/90/90
f 91/91/91 90/90/90 81/81/81
f 81/81/81 90/90/90 85/85/85
f 90/90/90 86/86/86 85/85/85
f 81/81/81 85/85/85 82/82/82
f 82/82/82 85/85/85 84/84/84
f 82/82/82 84/84/84 83/83/83
f 110/110/110 109/109/109 108/108/108
f 111/111/111 110/110/110 108/108/108
f 122/122/122 112/112/112 123/123/123
f 123/123/123 112/112/112 124/124/124
f 124/124/124 112/112/112 125/125/125
f 125/125/125 112/112/112 126/126/126
f 126/126/126 112/112/112 138/138/138
f 126/126/126 138/138/138 127/127/127
f 127/127/127 138/138/138 137/137/137
f 127/127/127 137/137/137 128/128/128
f 128/128/128 137/137/137 129/129/129
f 130/130/130 129/129/129 132/132/132
f 132/132/132 129/129/129 136/136/136
f 129/129/129 137/137/137 136/136/136
f 132/132/132 136/136/136 133/133/133
f 133/133/133 136/136/136 135/135/135
f 133/133/133 135/135/135 134/134/134
f 115/115/115 114/114/114 113/113/113
f 115/115/115 113/113/113 116/116/116
f 116/116/116 113/113/113 112/112/112
f 116/116/116 112/112/112 122/122/122
f 116/116/116 122/122/122 121/121/121
f 116/116/116 121/121/121 120/120/120
f 116/116/116 120/120/120 117/117/117
f 117/117/117 120/120/120 119/119/119
f 117/117/117 119/119/119 118/118/118
f 131/131/131 130/130/130 132/132/132
f 141/141/141 140/140/140 139/139/139
f 142/142/142 141/141/141 139/139/139
f 145/145/145 144/144/144 143/143/143
f 146/146/146 145/145/145 143/143/143
f 149/149/149 148/148/148 147/147/147
f 150/150/150 149/149/149 147/147/147
f 153/153/153 152/152/152 151/151/151
f 154/154/154 153/153/153 151/151/151
f 157/157/157 156/156/156 155/155/155
f 158/158/158 157/157/157 155/155/155
f 161/161/161 160/160/160 159/159/159
f 162/162/162 161/161/161 159/159/159
