g Vent_Bend_Mesh
v 2 -2 -2
v 2 -2 5
v -2 -2 5
v -2 -2 2
v -5 -2 2
v -5 -2 -2
v -2 2 2
v -5 2 2
v -5 -2 2
v -2 -2 2
v -2 -2 2
v -2 -2 5
v -2 2 5
v -2 2 2
v -2 2 5
v 2 2 5
v 2 2 -2
v -5 2 -2
v -5 2 2
v -2 2 2
v 2 2 -2
v 2 2 5
v 2 -2 5
v 2 -2 -2
v -5 2 -2
v 2 2 -2
v 2 -2 -2
v -5 -2 -2
vt 0 1
vt 1 1
vt 1 0.4375
vt 0.5625 0.4375
vt 0.5625 0
vt 0 0
vt 0 0
vt 0 1.003072
vt 1 1.003072
vt 1 0
vt 1 1.003072
vt 1 0
vt 0 0
vt 0 1.003072
vt 1 0.578125
vt 1 0
vt 0 0
vt 0 1
vt 0.578125 1
vt 0.578125 0.578125
vt 0 1
vt 1.99998 1
vt 1.99998 0
vt 0 0
vt 1 2.000406
vt 1 0
vt 0 0
vt 0 2.000406
vn 0 1 0
vn 0 1 0
vn 0 1 0
vn 0 1 0
vn 0 1 0
vn 0 1 0
vn 0 0 -1
vn 0 0 -1
vn 0 0 -1
vn 0 0 -1
vn 1 0 0
vn 1 0 0
vn 1 0 0
vn 1 0 0
vn 0 -1 0
vn 0 -1 0
vn 0 -1 0
vn 0 -1 0
vn 0 -1 0
vn 0 -1 0
vn -1 0 0
vn -1 0 0
vn -1 0 0
vn -1 0 0
vn 0 0 1
vn 0 0 1
vn 0 0 1
vn 0 0 1
g Vent_Bend_Mesh_0
f 6/6/6 5/5/5 4/4/4
f 6/6/6 4/4/4 2/2/2
f 6/6/6 2/2/2 1/1/1
f 3/3/3 2/2/2 4/4/4
f 9/9/9 8/8/8 7/7/7
f 10/10/10 9/9/9 7/7/7
f 13/13/13 12/12/12 11/11/11
f 14/14/14 13/13/13 11/11/11
f 19/19/19 18/18/18 20/20/20
f 15/15/15 20/20/20 17/17/17
f 20/20/20 18/18/18 17/17/17
f 15/15/15 17/17/17 16/16/16
f 23/23/23 22/22/22 21/21/21
f 24/24/24 23/23/23 21/21/21
f 27/27/27 26/26/26 25/25/25
f 28/28/28 27/27/27 25/25/25
