g Vent_Entrance_Mesh
v -2 3 2
v -2 10 2
v -2 10 -2
v -2 3 -2
v -2 3 -2
v -2 10 -2
v 2 10 -2
v 2 3 -2
v 2 3 -2
v 2 10 -2
v 2 10 2
v 2 3 2
v -2 3 2
v -2 3 -2
v 2 3 -2
v 2 3 2
v 2 7 2
v 2 10 2
v -2 10 2
v -2 7 2
v 5 0 5
v -5 0 5
v -5 10 5
v 5 10 5
v 3 8 5
v -3 8 5
v -3 2 5
v 3 2 5
v -3 8 5
v 3 8 5
v 2 7 2
v -2 7 2
v -3 8 5
v -2 7 2
v -2 3 2
v -3 2 5
v -2 3 2
v 2 3 2
v 3 2 5
v -3 2 5
v 3 8 5
v 3 2 5
v 2 3 2
v 2 7 2
vt 0 2.000041
vt 2.000015 2.000041
vt 2.000015 1
vt 0 1
vt 0 1
vt 0 2.999599
vt 0.9995147 2.999599
vt 0.9995147 1
vt 0 1
vt 0 2.999599
vt 0.9995147 2.999599
vt 0.9995147 1
vt 1 2
vt 1 1
vt 0 1
vt 0 2
vt 0 1
vt 0 2
vt 1 2
vt 1 1
vt 1.000157 0.001369953
vt -0.0005024672 0.001369953
vt -0.0005024672 1.000028
vt 1.000157 1.000028
vt 0.796875 0.796875
vt 0.203125 0.796875
vt 0.203125 0.203125
vt 0.796875 0.203125
vt 0.796875 0.796875
vt 0.203125 0.7968749
vt 0.3125 0.515625
vt 0.6875 0.515625
vt 0.203125 0.796875
vt 0.484375 0.6875
vt 0.484375 0.3125
vt 0.203125 0.203125
vt 0.6875 0.484375
vt 0.3125 0.484375
vt 0.203125 0.203125
vt 0.796875 0.203125
vt 0.796875 0.796875
vt 0.796875 0.203125
vt 0.515625 0.3125
vt 0.515625 0.6875
vn 1 0 0
vn 1 0 0
vn 1 0 0
vn 1 0 0
vn 0 0 1
vn 0 0 1
vn 0 0 1
vn 0 0 1
vn -1 0 0
vn -1 0 0
vn -1 0 0
vn -1 0 0
vn 0 1 0
vn 0 1 0
vn 0 1 0
vn 0 1 0
vn 0 0 -1
vn 0 0 -1
vn 0 0 -1
vn 0 0 -1
vn 0 0 1
vn 0 0 1
vn 0 0 1
vn 0 0 1
vn 0 0 1
vn 0 0 1
vn 0 0 1
vn 0 0 1
vn 0 -0.9486833 0.3162278
vn 0 -0.9486833 0.3162278
vn 0 -0.9486833 0.3162278
vn 0 -0.9486833 0.3162278
vn 0.9486833 0 0.3162278
vn 0.9486833 0 0.3162278
vn 0.9486833 0 0.3162278
vn 0.9486833 0 0.3162278
vn 0 0.9486833 0.3162278
vn 0 0.9486833 0.3162278
vn 0 0.9486833 0.3162278
vn 0 0.9486833 0.3162278
vn -0.9486833 0 0.3162278
vn -0.9486833 0 0.3162278
vn -0.9486833 0 0.3162278
vn -0.9486833 0 0.3162278
g Vent_Entrance_Mesh_0
f 3/3/3 2/2/2 1/1/1
f 4/4/4 3/3/3 1/1/1
f 7/7/7 6/6/6 5/5/5
f 8/8/8 7/7/7 5/5/5
f 11/11/11 10/10/10 9/9/9
f 12/12/12 11/11/11 9/9/9
f 15/15/15 14/14/14 13/13/13
f 16/16/16 15/15/15 13/13/13
f 19/19/19 18/18/18 17/17/17
f 20/20/20 19/19/19 17/17/17
f 28/28/28 21/21/21 25/25/25
f 25/25/25 21/21/21 24/24/24
f 25/25/25 24/24/24 26/26/26
f 26/26/26 24/24/24 23/23/23
f 21/21/21 28/28/28 22/22/22
f 22/22/22 28/28/28 27/27/27
f 22/22/22 27/27/27 26/26/26
f 22/22/22 26/26/26 23/23/23
f 31/31/31 30/30/30 29/29/29
f 32/32/32 31/31/31 29/29/29
f 35/35/35 34/34/34 33/33/33
f 36/36/36 35/35/35 33/33/33
f 39/39/39 38/38/38 37/37/37
f 40/40/40 39/39/39 37/37/37
f 43/43/43 42/42/42 41/41/41
f 44/44/44 43/43/43 41/41/41
